<?xml version="1.0" encoding="iso-8859-1"?>
<!-- Generator: Adobe Illustrator 19.0.0, SVG Export Plug-In . SVG Version: 6.00 Build 0)  -->
<svg version="1.1" id="Layer_1" xmlns="http://www.w3.org/2000/svg" xmlns:xlink="http://www.w3.org/1999/xlink" x="0px" y="0px"
	 viewBox="0 0 512 512" style="enable-background:new 0 0 512 512;" xml:space="preserve">
<g>
	<circle style="fill:#7FABDA;" cx="256" cy="44.138" r="44.138"/>
	<path style="fill:#7FABDA;" d="M344.276,291.31V167.724h-35.31v326.621c0,9.754-7.901,17.655-17.655,17.655l0,0
		c-9.754,0-17.655-7.901-17.655-17.655V308.966h-35.31v185.379c0,9.754-7.901,17.655-17.655,17.655l0,0
		c-9.754,0-17.655-7.901-17.655-17.655V167.724h-35.31V291.31c0,9.754-7.901,17.655-17.655,17.655l0,0
		c-9.754,0-17.655-7.901-17.655-17.655V158.897c0-19.5,15.81-35.31,35.31-35.31h176.552c19.5,0,35.31,15.81,35.31,35.31V291.31
		c0,9.754-7.901,17.655-17.655,17.655l0,0C352.177,308.966,344.276,301.065,344.276,291.31z"/>
</g>
<g>
</g>
<g>
</g>
<g>
</g>
<g>
</g>
<g>
</g>
<g>
</g>
<g>
</g>
<g>
</g>
<g>
</g>
<g>
</g>
<g>
</g>
<g>
</g>
<g>
</g>
<g>
</g>
<g>
</g>
</svg>
